<?xml version="1.0" encoding="UTF-8"?>
<svg width="299px" height="244px" viewBox="0 0 299 244" version="1.1" xmlns="http://www.w3.org/2000/svg" xmlns:xlink="http://www.w3.org/1999/xlink">
    <!-- Generator: Sketch 55.2 (78181) - https://sketchapp.com -->
    <title>Accor_logo_White</title>
    <desc>Created with Sketch.</desc>
    <g id="Search-Results-2" stroke="none" stroke-width="1" fill="none" fill-rule="evenodd">
        <g id="Desktop/Search-List/V2/No-results-Copy" transform="translate(-421.000000, -410.000000)" fill="#FFFFFF" fill-rule="nonzero">
            <g id="Accor_logo_White" transform="translate(421.000000, 410.000000)">
                <path d="M226.44,160.62 L189.17,160.62 L161.77,103.53 C146.77,111.66 138.28,130.48 123.12,142.92 C114.831285,149.854444 105.340922,155.209721 95.12,158.72 C90.02,160.45 81.35,162.72 78.12,163.01 C76.76,163.15 75.8,163.09 75.6,162.6 C75.4,162.11 75.82,161.93 77.27,161.23 C78.92,160.43 85.77,157.6 90.06,154.61 C95.41,150.88 98.48,146.84 98.72,143.73 C97.24,138.54 86.72,127.02 97.49,105.89 C101.33,98.31 104.66,92.89 107.05,87.37 C109.82929,80.3926846 111.623192,73.0622571 112.38,65.59 C112.38,65.21 112.49,65.23 112.7,65.44 C117.92,70.72 138.16,91.56 135.23,112.28 C141.96,109.69 153.64,101.84 159.02,97.65 C164.7,93.23 168.4,88.65 174.42,88.51 C179.81,88.42 180.27,90.99 184.56,91.56 C185.730263,91.6866726 186.913809,91.5288664 188.01,91.1 C188.34,90.93 188.26,90.57 187.76,90.46 C181.91,89.08 180.51,84.31 172.94,84.31 C166.16,84.31 160.76,90.56 156.84,93.12 L137.64,53.24 C129.64,36.55 132.08,24.43 149.64,0.59 L226.44,160.62 Z" id="Path"></path>
                <path d="M298.7,242.75 L285.7,227.24 C292.56,225.67 296.75,221.73 296.75,214.88 C296.75,207.13 290.19,203.26 281.88,203.26 L255.88,203.26 L255.88,242.75 L262.79,242.75 L262.79,227.8 L278.2,227.8 L290.13,242.75 L298.7,242.75 Z M262.7,209.38 L282,209.38 C286.76,209.38 289.6,211.62 289.6,215.38 C289.6,219.14 286.6,221.7 282,221.7 L262.72,221.7 L262.7,209.38 Z" id="Shape"></path>
                <path d="M21,203.26 L0.59,242.75 L8.4,242.75 L12.74,233.95 L35.93,233.95 L40.28,242.75 L48.28,242.75 L27.9,203.26 L21,203.26 Z M15.82,227.82 L24.39,210.47 L32.96,227.82 L15.82,227.82 Z" id="Shape"></path>
                <path d="M84.79,208.45 C91.28,208.45 96.63,210.9 99.38,215.2 L104.95,211.46 C101.05,205.99 94.15,202.21 84.79,202.21 C69.65,202.21 60.96,212.09 60.96,223 C60.96,233.91 69.65,243.79 84.79,243.79 C94.15,243.79 101.05,240.01 104.95,234.55 L99.38,230.8 C96.63,235.1 91.28,237.55 84.79,237.55 C74.61,237.55 68.04,231.84 68.04,223 C68.04,214.16 74.61,208.45 84.79,208.45 Z" id="Path"></path>
                <path d="M147.49,208.45 C153.99,208.45 159.34,210.9 162.08,215.2 L167.65,211.46 C163.75,205.99 156.86,202.21 147.49,202.21 C132.36,202.21 123.66,212.09 123.66,223 C123.66,233.91 132.36,243.79 147.49,243.79 C156.86,243.79 163.75,240.01 167.65,234.55 L162.08,230.8 C159.34,235.1 153.99,237.55 147.49,237.55 C137.32,237.55 130.74,231.84 130.74,223 C130.74,214.16 137.32,208.45 147.49,208.45 Z" id="Path"></path>
                <path d="M210.21,202.21 C195.07,202.21 186.38,212.09 186.38,223 C186.38,233.91 195.07,243.79 210.21,243.79 C225.35,243.79 234,233.91 234,223 C234,212.09 225.34,202.21 210.21,202.21 Z M210.21,237.62 C200.03,237.62 193.46,231.88 193.46,223 C193.46,214.12 200.03,208.38 210.21,208.38 C220.39,208.38 227,214.12 227,223 C227,231.88 220.38,237.62 210.21,237.62 Z" id="Shape"></path>
            </g>
        </g>
    </g>
</svg>