<?xml version="1.0" encoding="UTF-8"?>
<svg width="21" height="21" xmlns="http://www.w3.org/2000/svg" viewBox="0 0 1024 1024">
    <path fill="#fff" d="M512 1005.714c-271.543 0-493.714-222.171-493.714-493.714s222.171-493.714 493.714-493.714c271.543 0 493.714 222.171 493.714 493.714s-222.171 493.714-493.714 493.714v0zM512 53.551c-253.91 0-458.449 204.539-458.449 458.449s204.539 458.449 458.449 458.449c253.91 0 458.449-204.539 458.449-458.449s-204.539-458.449-458.449-458.449zM635.429 423.837h-84.637v-52.898c0-21.159 14.106-24.686 24.686-24.686h59.951v-91.69h-81.11c-88.163 0-109.322 67.004-109.322 109.322v59.951h-52.898v91.69h49.371v264.49h109.322v-264.49h74.057l10.58-91.69z" fill-opacity="1" />
</svg>