<?xml version="1.0" encoding="UTF-8"?>
<svg width="21" height="21" xmlns="http://www.w3.org/2000/svg" viewBox="0 0 1024 1024">
    <path fill="#fff" d="M512 1005.714c-271.543 0-493.714-222.171-493.714-493.714s222.171-493.714 493.714-493.714c271.543 0 493.714 222.171 493.714 493.714s-222.171 493.714-493.714 493.714v0zM512 53.551c-253.91 0-458.449 204.539-458.449 458.449s204.539 458.449 458.449 458.449c253.91 0 458.449-204.539 458.449-458.449s-204.539-458.449-458.449-458.449zM702.433 758.857h-380.865c-28.212 0-56.424-28.212-56.424-59.951v-377.339c0-28.212 28.212-56.424 56.424-56.424h377.339c31.739 0 59.951 28.212 59.951 56.424v377.339c0 31.739-28.212 59.951-56.424 59.951zM702.433 473.208h-42.318c3.527 10.58 3.527 24.686 3.527 38.792 0 84.637-67.004 151.641-151.641 151.641s-151.641-67.004-151.641-151.641c0-14.106 3.527-24.686 3.527-38.792h-42.318v208.065c0 10.58 7.053 17.633 17.633 17.633h338.547c10.58 0 17.633-7.053 17.633-17.633v-208.065h7.053zM702.433 342.727c0-10.58-7.053-17.633-17.633-17.633h-56.424c-10.58 0-17.633 7.053-17.633 17.633v56.424c0 10.58 7.053 17.633 17.633 17.633h56.424c10.58 0 17.633-7.053 17.633-17.633v-56.424zM512 416.784c-52.898 0-95.216 42.318-95.216 95.216s42.318 95.216 95.216 95.216c52.898 0 95.216-42.318 95.216-95.216s-42.318-95.216-95.216-95.216z" fill-opacity="1" />
</svg>