<?xml version="1.0" encoding="UTF-8"?>
<svg width="21" height="21" xmlns="http://www.w3.org/2000/svg" viewBox="0 0 1024 1024">
    <path fill="#fff" d="M512 1005.714c-271.543 0-493.714-222.171-493.714-493.714s222.171-493.714 493.714-493.714c271.543 0 493.714 222.171 493.714 493.714s-222.171 493.714-493.714 493.714v0zM512 53.551c-253.91 0-458.449 204.539-458.449 458.449s204.539 458.449 458.449 458.449c253.91 0 458.449-204.539 458.449-458.449s-204.539-458.449-458.449-458.449zM416.784 772.963c14.106-21.159 31.739-56.424 42.318-84.637 3.527-14.106 21.159-77.584 21.159-77.584 10.58 21.159 42.318 38.792 74.057 38.792 98.743 0 169.273-91.69 169.273-204.539 0-109.322-88.163-190.433-201.012-190.433-141.061 0-218.645 95.216-218.645 197.486 0 49.371 24.686 109.322 67.004 126.955 7.053 3.527 10.58 0 10.58-3.527s7.053-28.212 10.58-38.792c0-3.527 0-7.053-3.527-10.58-14.106-17.633-24.686-45.845-24.686-74.057 0-74.057 56.424-141.061 148.114-141.061 81.11 0 137.535 56.424 137.535 134.008 0 88.163-45.845 151.641-102.269 151.641-31.739 0-56.424-28.212-49.371-59.951 10.58-38.792 28.212-81.11 28.212-109.322 0-24.686-14.106-45.845-42.318-45.845-31.739 0-59.951 35.265-59.951 81.11 0 28.212 10.58 49.371 10.58 49.371s-31.739 137.535-38.792 162.22c-7.053 28.212-3.527 67.004 0 95.216l21.159 3.527z" fill-opacity="1" />
</svg>