<?xml version="1.0" encoding="UTF-8"?>
<svg width="21" height="21" xmlns="http://www.w3.org/2000/svg" viewBox="0 0 1024 1024">
    <path fill="#fff" d="M512 1005.714c-271.543 0-493.714-222.171-493.714-493.714s222.171-493.714 493.714-493.714c271.543 0 493.714 222.171 493.714 493.714s-222.171 493.714-493.714 493.714v0zM512 53.551c-253.91 0-458.449 204.539-458.449 458.449s204.539 458.449 458.449 458.449c253.91 0 458.449-204.539 458.449-458.449s-204.539-458.449-458.449-458.449zM769.437 346.253c-17.633 7.053-38.792 14.106-63.478 17.633 21.159-14.106 38.792-35.265 45.845-59.951-21.159 14.106-42.318 21.159-67.004 24.686-21.159-21.159-49.371-35.265-77.584-35.265-59.951 0-109.322 49.371-109.322 109.322 0 7.053 0 17.633 3.527 24.686-88.163-3.527-169.273-45.845-222.171-112.849-10.58 17.633-14.106 35.265-14.106 52.898 0 38.792 17.633 70.531 49.371 88.163-17.633 0-35.265-7.053-49.371-14.106 0 52.898 38.792 95.216 88.163 105.796-10.58 3.527-17.633 3.527-28.212 3.527-7.053 0-14.106 0-21.159-3.527 14.106 42.318 52.898 74.057 102.269 74.057-35.265 28.212-84.637 45.845-134.008 45.845h-24.686c49.371 31.739 105.796 49.371 165.747 49.371 197.486 0 306.808-165.747 306.808-306.808v-14.106c17.633-10.58 35.265-28.212 49.371-49.371z" fill-opacity="1" />
</svg>